<svg width="84" height="45" viewBox="0 0 84 45" fill="none" xmlns="http://www.w3.org/2000/svg">
<path fill-rule="evenodd" clip-rule="evenodd" d="M49 0V1.07143V43.9286V45H50.0714H82.2143H83.2857V43.9286V1.07143V0H82.2143H50.0714H49ZM51.1429 2.14285H81.1429V13.3929H51.1429V2.14285ZM53.2857 3.75V4.82143V10.7143V11.7857H54.3571H77.9286H79V10.7143V4.82143V3.75H77.9286H54.3571H53.2857ZM55.4286 5.89285H76.8571V9.64285H55.4286V5.89285ZM51.1429 15.5357H65.0714V28.9286H51.1429V15.5357ZM67.2143 15.5357H81.1429V28.9286H67.2143V15.5357ZM73.1071 18.75V21.4286H70.4286V23.5714H73.1071V26.25H75.25V23.5714H77.9286V21.4286H75.25V18.75H73.1071ZM54.3571 21.4286V23.5714H61.8571V21.4286H54.3571ZM51.1429 31.0714H65.0714V42.8571H51.1429V31.0714ZM67.2143 31.0714H81.1429V42.8571H67.2143V31.0714ZM56.182 33.5156L54.6752 35.0391L56.6005 36.9643L54.6752 38.8728L56.182 40.3962L58.1071 38.471L60.0324 40.3962L61.5391 38.8728L59.6138 36.9643L61.5391 35.0391L60.0324 33.5156L58.1071 35.4408L56.182 33.5156ZM70.4286 34.2857V36.4286H77.9286V34.2857H70.4286ZM70.4286 37.5V39.6429H77.9286V37.5H70.4286ZM19.6609 30C18.1776 30 16.7275 30.4399 15.4941 31.264C14.2607 32.0881 13.2994 33.2594 12.7318 34.6299C12.1642 36.0004 12.0156 37.5083 12.3051 38.9632C12.5944 40.4181 13.3087 41.7544 14.3576 42.8033C15.4066 43.8522 16.7429 44.5665 18.1978 44.8559C19.6526 45.1453 21.1606 44.9967 22.5311 44.4291C23.9015 43.8614 25.0728 42.9001 25.8969 41.6668C26.7211 40.4334 27.1609 38.9834 27.1609 37.5C27.1588 35.5115 26.3679 33.6051 24.9618 32.1991C23.5557 30.793 21.6494 30.0022 19.6609 30ZM19.6609 42.5C18.672 42.5 17.7053 42.2068 16.8831 41.6573C16.0608 41.1079 15.4199 40.327 15.0415 39.4134C14.663 38.4998 14.564 37.4945 14.757 36.5246C14.9499 35.5546 15.4261 34.6637 16.1254 33.9645C16.8246 33.2652 17.7155 32.789 18.6854 32.5961C19.6553 32.4032 20.6607 32.5022 21.5743 32.8806C22.4879 33.259 23.2688 33.8999 23.8182 34.7222C24.3676 35.5444 24.6609 36.5111 24.6609 37.5C24.6594 38.8256 24.1321 40.0965 23.1948 41.0339C22.2574 41.9712 20.9865 42.4985 19.6609 42.5ZM44.661 13.7518V20C44.661 20.3315 44.5293 20.6495 44.2949 20.8839C44.0604 21.1183 43.7425 21.25 43.411 21.25H29.036C28.8016 21.25 28.572 21.1841 28.3732 21.0598C28.1745 20.9355 28.0148 20.7579 27.9122 20.5472C27.8096 20.3365 27.7683 20.1012 27.793 19.8681C27.8178 19.635 27.9075 19.4136 28.0521 19.2291C28.602 18.526 33.5666 12.3786 37.4967 12.5025L43.411 12.5018C43.7426 12.5018 44.0605 12.6335 44.2949 12.868C44.5293 13.1024 44.661 13.4203 44.661 13.7518ZM31.7911 18.75H42.161V15.0019H37.4545C35.9982 14.9579 33.6752 16.8 31.7911 18.75ZM29.661 36.25C29.7759 37.0794 29.7759 37.9206 29.661 38.75H47.411C47.3917 37.9776 47.4008 37.6202 47.4092 37.2901V37.2888V37.2882C47.4165 37.0046 47.4233 36.7405 47.411 36.25H29.661ZM47.478 7.5H35.9683C35.9372 7.5 35.9055 7.50125 35.8743 7.50366C30.7193 7.89246 25.7559 13.5852 25.2139 14.2242C22.0336 17.2375 17.9842 19.1714 13.6415 19.751C8.89423 20.1318 4.57783 21.7303 2.76813 23.1122C2.07813 23.6425 1.50434 24.3088 1.08228 25.0699C0.660225 25.8309 0.398872 26.6705 0.31446 27.5366C0.310798 27.5739 0.308357 27.6117 0.308357 27.6489C0.307319 27.8131 0.291572 30.0661 0.286995 32.4882L0.285774 32.5L0.286934 32.5114C0.283393 34.3777 0.286628 36.3404 0.308357 37.5232C0.314582 37.8506 0.448982 38.1626 0.682685 38.392C0.91645 38.6214 1.23084 38.7499 1.55836 38.75H9.74757C9.6319 37.9207 9.6319 37.0793 9.74757 36.25H2.79371C2.79047 35.809 2.7884 35.3249 2.7873 34.8183C2.78651 34.4706 2.78614 34.1123 2.78614 33.75H4.03583C4.36732 33.75 4.68525 33.6183 4.91968 33.3839C5.15412 33.1495 5.28583 32.8315 5.28583 32.5C5.28583 32.1685 5.15412 31.8505 4.91968 31.6161C4.68525 31.3817 4.36732 31.25 4.03583 31.25H2.79066C2.79578 29.6825 2.80396 28.346 2.80695 27.861L2.80775 27.7271C2.86469 27.2122 3.02491 26.7141 3.27882 26.2627C3.53272 25.8112 3.87507 25.4156 4.28547 25.0995C5.555 24.1296 9.35932 22.6025 13.8417 22.2424C18.7971 21.6339 23.4199 19.4294 27.012 15.9619C27.0407 15.9332 27.0682 15.9039 27.0938 15.8728C28.3731 14.3359 32.4588 10.2997 36.0178 10H47.503L47.478 7.5Z" fill="#1B3F87"/>
</svg>
