<svg width="20" height="25" viewBox="0 0 20 25" fill="none" xmlns="http://www.w3.org/2000/svg">
<path d="M0 -3.05176e-05V0.595208V24.4047V25H0.595238H18.4524H19.0476V24.4047V0.595208V-3.05176e-05H18.4524H0.595238H0ZM1.19048 1.19045H17.8571V7.44045H1.19048V1.19045ZM2.38095 2.0833V2.67854V5.95235V6.54759H2.97619H16.0714H16.6667V5.95235V2.67854V2.0833H16.0714H2.97619H2.38095ZM3.57143 3.27378H15.4762V5.35711H3.57143V3.27378ZM1.19048 8.63092H8.92857V16.0714H1.19048V8.63092ZM10.119 8.63092H17.8571V16.0714H10.119V8.63092ZM13.3929 10.4166V11.9047H11.9048V13.0952H13.3929V14.5833H14.5833V13.0952H16.0714V11.9047H14.5833V10.4166H13.3929ZM2.97619 11.9047V13.0952H7.14286V11.9047H2.97619ZM1.19048 17.2619H8.92857V23.8095H1.19048V17.2619ZM10.119 17.2619H17.8571V23.8095H10.119V17.2619ZM3.98996 18.6198L3.1529 19.4661L4.22247 20.5357L3.1529 21.596L3.98996 22.4423L5.05952 21.3727L6.12909 22.4423L6.96615 21.596L5.89658 20.5357L6.96615 19.4661L6.12909 18.6198L5.05952 19.6893L3.98996 18.6198ZM11.9048 19.0476V20.2381H16.0714V19.0476H11.9048ZM11.9048 20.8333V22.0238H16.0714V20.8333H11.9048Z" fill="#1B3F87"/>
</svg>
